name GIL11_fast2Moments.mot
datacolumns 7
datarows 40
range 0.09999991 0.42499992
endheader

                time	          RHipMoment	          LHipMoment	         RKneeMoment	         LKneeMoment	        RAnkleMoment	        LAnkleMoment	
          0.09999991	        879.03253174	       -379.80978394	        821.89385986	         79.76065826	         15.33911133	        -62.38759232	
          0.10833324	        819.96905518	       -354.49679565	        809.01055908	        104.98405457	         54.97904968	        -59.91313934	
          0.11666658	        778.28161621	       -348.00784302	        755.87664795	        133.08789063	        103.25192261	        -54.63608932	
          0.12499991	        735.44598389	       -347.74639893	        684.68200684	        159.20896912	        156.97515869	        -47.77441788	
          0.13333325	        670.44915771	       -348.98843384	        612.88983154	        179.05427551	        211.36590576	        -40.55559158	
          0.14166658	        602.31152344	       -338.20916748	        540.00915527	        189.43772888	        265.05749512	        -33.92327881	
          0.14999992	        542.02069092	       -320.64218140	        461.01296997	        189.56631470	        318.58352661	        -28.38938522	
          0.15833324	        489.52056885	       -283.32601929	        381.82040405	        181.28697205	        370.79446411	        -24.05844116	
          0.16666658	        442.90438843	       -242.01162720	        302.49099731	        167.64279175	        420.98193359	        -20.72351265	
          0.17499992	        403.47766113	       -192.76335144	        226.15165710	        151.23997498	        468.11123657	        -18.01050377	
          0.18333325	        362.73800659	       -160.18547058	        155.77119446	        133.76887512	        511.58270264	        -15.62332535	
          0.19166657	        309.77416992	       -136.01132202	         96.62398529	        116.13838196	        549.79479980	        -13.44322395	
          0.19999991	        242.69378662	       -125.08972168	         52.19897842	         98.66783142	        582.29559326	        -11.51634598	
          0.20833325	        186.86117554	       -116.41636658	         13.60617733	         81.27606964	        609.24200439	        -10.01815701	
          0.21666658	        162.87518311	       -115.94804382	        -32.18426132	         63.82012939	        634.55358887	         -9.13321114	
          0.22499992	        135.90164185	       -106.65827942	        -65.73901367	         46.30128479	        655.10186768	         -8.98107529	
          0.23333324	        152.44691467	        -85.12030029	       -113.34924316	         29.23631668	        671.71142578	         -9.54762363	
          0.24166659	        186.00822449	        -55.24858856	       -166.91725159	         14.21700859	        684.03125000	        -10.64996624	
          0.24999991	        213.93878174	        -27.02394104	       -213.12126160	          3.17088366	        694.34887695	        -11.97813606	
          0.25833327	        220.35870361	         -4.11679220	       -248.34164429	         -3.03694010	        705.71820068	        -13.18648052	
          0.26666659	        204.71614075	         16.34802818	       -270.33828735	         -4.67589283	        719.22698975	        -14.02705574	
          0.27499992	        162.72325134	         28.55378342	       -279.65893555	         -2.68125820	        736.19592285	        -14.44246578	
          0.28333324	        111.81838989	         31.09861946	       -282.26629639	          0.98552454	        757.30236816	        -14.53363514	
          0.29166657	         58.30945587	         26.47758102	       -284.40280151	          3.14906740	        780.92834473	        -14.46859550	
          0.29999989	         32.06052017	         32.21209335	       -292.46011353	          0.56624544	        806.72174072	        -14.38755322	
          0.30833325	         28.65904808	         45.55731964	       -312.48095703	         -8.24489021	        836.00823975	        -14.36998940	
          0.31666657	         42.46037674	         68.72239685	       -336.00662231	        -23.09523582	        867.80548096	        -14.43857765	
          0.32499993	         34.87111282	        104.68762970	       -352.63223267	        -43.72151566	        903.18249512	        -14.56161308	
          0.33333325	         12.05656910	        160.99891663	       -362.60736084	        -70.38784790	        942.59149170	        -14.67144489	
          0.34166658	        -37.58642578	        235.09541321	       -366.06439209	       -103.09026337	        982.92218018	        -14.67906857	
          0.34999990	       -104.49276733	        315.84555054	       -364.41043091	       -141.10209656	       1024.46923828	        -14.47967529	
          0.35833326	       -192.16235352	        395.04315186	       -359.88778687	       -184.25457764	       1064.17089844	        -13.94039345	
          0.36666659	       -281.34078979	        474.89102173	       -352.85388184	       -233.10485840	       1100.45507813	        -12.88645554	
          0.37499991	       -374.98345947	        549.71289063	       -343.56454468	       -287.32299805	       1135.43664551	        -11.12675381	
          0.38333324	       -449.62646484	        616.50109863	       -329.38046265	       -345.62780762	       1168.27722168	         -8.50618839	
          0.39166659	       -535.02447510	        675.82019043	       -303.34130859	       -405.00177002	       1200.22070313	         -4.95965624	
          0.39999992	       -618.45379639	        728.69671631	       -263.91839600	       -461.30212402	       1228.03149414	         -0.61359620	
          0.40833324	       -706.70147705	        774.67773438	       -212.89828491	       -508.30508423	       1249.61840820	          4.17509794	
          0.41666657	       -785.07159424	        800.56219482	       -153.24412537	       -537.72210693	       1260.11425781	          8.73834419	
          0.42499992	       -858.96948242	        789.99078369	        -88.28616333	       -541.53161621	       1257.06103516	         12.15273476	
